<?xml version="1.0" standalone="no"?>
<!DOCTYPE svg PUBLIC "-//W3C//DTD SVG 20010904//EN"
 "http://www.w3.org/TR/2001/REC-SVG-20010904/DTD/svg10.dtd">
<svg version="1.0" xmlns="http://www.w3.org/2000/svg"
 width="2560.000000pt" height="1440.000000pt" viewBox="0 0 2560.000000 1440.000000"
 preserveAspectRatio="xMidYMid meet">
<metadata>
Created by potrace 1.16, written by Peter Selinger 2001-2019
</metadata>
<g transform="translate(0.000000,1440.000000) scale(0.100000,-0.100000)"
fill="#000000" stroke="none">
<path d="M8616 8429 c-14 -11 -38 -41 -52 -65 -24 -40 -25 -47 -12 -60 13 -14
17 -14 31 0 8 9 25 32 37 51 28 45 48 42 78 -13 15 -27 30 -42 43 -42 27 0 25
34 -6 86 -39 67 -73 79 -119 43z"/>
<path d="M8382 8397 c-62 -66 -122 -328 -122 -537 l0 -89 -93 -99 c-163 -173
-232 -276 -283 -427 -25 -72 -27 -94 -28 -230 -1 -143 1 -159 43 -340 78 -343
53 -490 -81 -471 -145 21 -153 20 -188 -11 -64 -58 -32 -155 71 -213 39 -22
55 -25 144 -24 88 0 107 3 157 28 131 63 178 180 178 447 0 138 1 147 23 167
12 11 34 25 50 31 17 7 27 18 27 31 0 46 -105 9 -133 -47 -10 -19 -16 -79 -19
-193 -6 -200 -23 -270 -79 -334 -43 -49 -93 -73 -173 -82 -114 -14 -226 44
-226 115 0 47 32 58 112 39 85 -20 132 -9 179 41 74 77 76 194 7 491 -37 165
-42 199 -42 315 -1 109 3 142 22 205 47 147 104 238 253 400 58 64 111 125
118 137 6 12 11 52 11 90 1 209 70 523 115 523 13 0 45 -59 79 -142 15 -39 42
-50 52 -23 4 8 -4 41 -17 73 -55 138 -108 182 -157 129z"/>
<path d="M8622 8291 c-20 -12 -10 -45 13 -49 56 -8 74 -19 139 -81 77 -74 125
-104 159 -99 34 5 28 39 -8 51 -16 5 -61 40 -100 77 -38 37 -83 74 -100 82
-41 21 -87 30 -103 19z"/>
<path d="M8652 8118 c-21 -21 -14 -65 14 -87 36 -28 64 -13 64 33 0 51 -48 84
-78 54z"/>
<path d="M8927 8014 c-4 -4 -7 -14 -7 -23 0 -27 -56 -135 -83 -159 -14 -13
-42 -30 -64 -37 -44 -15 -53 -48 -15 -53 13 -2 25 -9 27 -15 8 -23 35 -404 35
-492 0 -100 -15 -195 -55 -360 -15 -60 -28 -139 -29 -175 -1 -59 1 -65 19 -65
17 0 21 9 26 55 4 30 24 125 45 210 38 153 38 158 39 355 0 110 -6 269 -14
353 l-14 153 41 42 c43 45 89 132 94 182 2 24 -1 31 -17 33 -12 2 -24 0 -28
-4z"/>
<path d="M8291 7297 c-14 -14 -14 -77 -1 -187 14 -114 42 -211 90 -319 22 -49
40 -100 40 -114 0 -38 10 -57 30 -57 43 0 33 69 -28 205 -49 110 -72 203 -78
315 -3 52 -7 109 -10 127 -5 34 -25 48 -43 30z"/>
<path d="M8585 7088 c-3 -7 -4 -115 -3 -238 3 -217 4 -225 23 -225 19 0 20 7
20 235 0 216 -1 235 -18 238 -9 2 -19 -3 -22 -10z"/>
<path d="M6 6565 c-3 -8 -3 -22 0 -30 5 -13 450 -15 3915 -15 l3909 0 0 30 0
30 -3909 0 c-3465 0 -3910 -2 -3915 -15z"/>
<path d="M8284 6565 c-4 -8 -4 -22 0 -30 5 -13 976 -15 8655 -15 7679 0 8650
2 8655 15 3 8 3 22 0 30 -5 13 -976 15 -8655 15 -7679 0 -8650 -2 -8655 -15z"/>
</g>
</svg>
